<?xml version="1.0" encoding="utf-8"?><!-- Uploaded to: SVG Repo, www.svgrepo.com, Generator: SVG Repo Mixer Tools -->
<svg fill="#000000" width="800px" height="800px" viewBox="0 0 1024 1024" xmlns="http://www.w3.org/2000/svg"><path d="M496.64 496.644c-11.311 0-20.48-9.169-20.48-20.48v-112.64c0-11.311 9.169-20.48 20.48-20.48h112.64c11.311 0 20.48 9.169 20.48 20.48v112.64c0 11.311-9.169 20.48-20.48 20.48H496.64zm92.16-40.96v-71.68h-71.68v71.68h71.68zm252.357-42.296c-2.978-6.862-8.649-12.533-15.511-15.511-32.717-14.187-63.077 16.173-48.892 48.884 2.98 6.868 8.651 12.539 15.514 15.517 32.717 14.187 63.077-16.173 48.89-48.89zm37.577-16.3c28.967 66.801-35.966 131.734-102.768 102.768-16.398-7.116-29.671-20.389-36.789-36.792-28.964-66.796 35.969-131.729 102.77-102.762 16.398 7.116 29.671 20.389 36.787 36.787zM710.287 113.25c16.001-5.367 31.261 9.837 25.954 25.857l-47.79 144.261c-4.802 14.495-23.205 18.827-33.968 7.996l-95.57-96.174c-10.7-10.767-6.377-29.025 8.014-33.853l143.36-48.087zm-99.093 76.441l48.854 49.163 24.43-73.745-73.284 24.582zm-231.962-73.357c60.974 65.665 60.974 172.704 0 238.369-7.696 8.289-7.216 21.247 1.072 28.943s21.247 7.216 28.943-1.072c75.566-81.381 75.566-212.73 0-294.111-7.696-8.289-20.655-8.769-28.943-1.072s-8.769 20.655-1.072 28.943zm300.74 550.054c65.551-64.574 171.944-64.574 237.495 0 8.058 7.938 21.025 7.84 28.962-.217s7.84-21.025-.217-28.962c-81.496-80.281-213.489-80.281-294.985 0-8.058 7.938-8.155 20.905-.217 28.962s20.905 8.155 28.962.217zM75.705 905.107L269.64 446.283c12.228-28.951 44.791-35.314 67.027-13.098l254.151 254.141c22.234 22.215 15.876 54.784-13.077 67.032l-458.853 193.91c-32.495 13.755-56.91-10.659-43.182-43.161zM561.79 716.631c1.622-.686 1.643-.709 1.484.106-.16.821-.167.801-1.412-.442L307.711 462.154c-1.242-1.241-1.268-1.251-.452-1.41s.798-.142.112 1.48l-186.245 440.63L561.79 716.631zM121.126 902.855l-18.194 7.689c-1.461.618-2.22.799-2.018.799 2.335.006 5.371 1.087 8.007 3.723 2.635 2.635 3.715 5.665 3.721 7.996.001.198.181-.564.794-2.016l7.689-18.191z"/><path d="M175.642 749.561l98.796 98.785c7.998 7.998 20.966 7.997 28.963-.002s7.997-20.966-.002-28.963l-98.796-98.785c-7.998-7.998-20.966-7.997-28.963.002s-7.997 20.966.002 28.963z"/></svg>