<?xml version="1.0" encoding="iso-8859-1"?>
<!-- Uploaded to: SVG Repo, www.svgrepo.com, Generator: SVG Repo Mixer Tools -->
<svg fill="#000000" height="800px" width="800px" version="1.1" id="Layer_1" xmlns="http://www.w3.org/2000/svg" xmlns:xlink="http://www.w3.org/1999/xlink" 
	 viewBox="0 0 512 512" xml:space="preserve">
<g>
	<g>
		<path d="M486.881,51.307H383.733V25.119C383.733,11.268,372.465,0,358.614,0c-13.851,0-25.119,11.268-25.119,25.119v26.188
			h-52.376V25.119C281.119,11.268,269.851,0,256,0s-25.119,11.268-25.119,25.119v26.188h-52.376V25.119
			C178.505,11.268,167.237,0,153.386,0s-25.119,11.268-25.119,25.119v26.188H25.119C11.268,51.307,0,62.575,0,76.426v410.455
			C0,500.732,11.268,512,25.119,512h461.762C500.732,512,512,500.732,512,486.881V76.426C512,62.575,500.732,51.307,486.881,51.307z
			 M349.528,25.119c0-5.01,4.076-9.086,9.086-9.086c5.01,0,9.086,4.076,9.086,9.086v51.307c0,5.01-4.076,9.086-9.086,9.086
			c-5.01,0-9.086-4.076-9.086-9.086V25.119z M246.914,25.119c0-5.01,4.076-9.086,9.086-9.086s9.086,4.076,9.086,9.086v51.307
			c0,5.01-4.076,9.086-9.086,9.086s-9.086-4.076-9.086-9.086V25.119z M144.301,25.119c0-5.01,4.076-9.086,9.086-9.086
			s9.086,4.076,9.086,9.086v51.307c0,5.01-4.076,9.086-9.086,9.086s-9.086-4.076-9.086-9.086V25.119z M495.967,136.818h-67.875
			c-4.428,0-8.017,3.589-8.017,8.017s3.588,8.017,8.017,8.017h67.875v334.029c0,5.01-4.076,9.086-9.086,9.086H25.119
			c-5.01,0-9.086-4.076-9.086-9.086V152.852h376.785c4.428,0,8.017-3.589,8.017-8.017s-3.588-8.017-8.017-8.017H16.033V76.426
			c0-5.01,4.076-9.086,9.086-9.086h103.148v9.086c0,13.851,11.268,25.119,25.119,25.119s25.119-11.268,25.119-25.119V67.34h52.376
			v9.086c0,13.851,11.268,25.119,25.119,25.119s25.119-11.268,25.119-25.119V67.34h52.376v9.086
			c0,13.851,11.268,25.119,25.119,25.119c13.851,0,25.119-11.268,25.119-25.119V67.34h103.148c5.01,0,9.086,4.076,9.086,9.086
			V136.818z"/>
	</g>
</g>
<g>
	<g>
		<path d="M136.284,171.023H67.875c-4.428,0-8.017,3.589-8.017,8.017v68.409c0,4.427,3.588,8.017,8.017,8.017h68.409
			c4.428,0,8.017-3.589,8.017-8.017V179.04C144.301,174.612,140.712,171.023,136.284,171.023z M128.267,239.432H75.891v-52.376
			h52.376V239.432z"/>
	</g>
</g>
<g>
	<g>
		<path d="M238.898,171.023h-68.409c-4.428,0-8.017,3.589-8.017,8.017v68.409c0,4.427,3.588,8.017,8.017,8.017h68.409
			c4.428,0,8.017-3.589,8.017-8.017V179.04C246.914,174.612,243.326,171.023,238.898,171.023z M230.881,239.432h-52.376v-52.376
			h52.376V239.432z"/>
	</g>
</g>
<g>
	<g>
		<path d="M341.511,171.023h-68.409c-4.428,0-8.017,3.589-8.017,8.017v68.409c0,4.427,3.588,8.017,8.017,8.017h68.409
			c4.428,0,8.017-3.589,8.017-8.017V179.04C349.528,174.612,345.94,171.023,341.511,171.023z M333.495,239.432h-52.376v-52.376
			h52.376V239.432z"/>
	</g>
</g>
<g>
	<g>
		<path d="M444.125,171.023h-68.409c-4.428,0-8.017,3.589-8.017,8.017v68.409c0,4.427,3.588,8.017,8.017,8.017h68.409
			c4.428,0,8.017-3.589,8.017-8.017V179.04C452.142,174.612,448.554,171.023,444.125,171.023z M436.109,239.432h-52.376v-52.376
			h52.376V239.432z"/>
	</g>
</g>
<g>
	<g>
		<path d="M136.284,282.188H67.875c-4.428,0-8.017,3.589-8.017,8.017v68.409c0,4.427,3.588,8.017,8.017,8.017h68.409
			c4.428,0,8.017-3.589,8.017-8.017v-68.409C144.301,285.777,140.712,282.188,136.284,282.188z M128.267,350.597H75.891v-52.376
			h52.376V350.597z"/>
	</g>
</g>
<g>
	<g>
		<path d="M238.898,282.188h-68.409c-4.428,0-8.017,3.589-8.017,8.017v68.409c0,4.427,3.588,8.017,8.017,8.017h68.409
			c4.428,0,8.017-3.589,8.017-8.017v-68.409C246.914,285.777,243.326,282.188,238.898,282.188z M230.881,350.597h-52.376v-52.376
			h52.376V350.597z"/>
	</g>
</g>
<g>
	<g>
		<path d="M444.125,282.188h-68.409c-4.428,0-8.017,3.589-8.017,8.017v68.409c0,4.427,3.588,8.017,8.017,8.017h68.409
			c4.428,0,8.017-3.589,8.017-8.017v-68.409C452.142,285.777,448.554,282.188,444.125,282.188z M436.109,350.597h-52.376v-52.376
			h52.376V350.597z"/>
	</g>
</g>
<g>
	<g>
		<path d="M136.284,393.353H67.875c-4.428,0-8.017,3.589-8.017,8.017v68.409c0,4.427,3.588,8.017,8.017,8.017h68.409
			c4.428,0,8.017-3.589,8.017-8.017V401.37C144.301,396.942,140.712,393.353,136.284,393.353z M128.267,461.762H75.891v-52.376
			h52.376V461.762z"/>
	</g>
</g>
<g>
	<g>
		<path d="M238.898,393.353h-68.409c-4.428,0-8.017,3.589-8.017,8.017v68.409c0,4.427,3.588,8.017,8.017,8.017h68.409
			c4.428,0,8.017-3.589,8.017-8.017V401.37C246.914,396.942,243.326,393.353,238.898,393.353z M230.881,461.762h-52.376v-52.376
			h52.376V461.762z"/>
	</g>
</g>
<g>
	<g>
		<path d="M341.511,393.353h-68.409c-4.428,0-8.017,3.589-8.017,8.017v68.409c0,4.427,3.588,8.017,8.017,8.017h68.409
			c4.428,0,8.017-3.589,8.017-8.017V401.37C349.528,396.942,345.94,393.353,341.511,393.353z M333.495,461.762h-52.376v-52.376
			h52.376V461.762z"/>
	</g>
</g>
<g>
	<g>
		<path d="M444.125,393.353h-68.409c-4.428,0-8.017,3.589-8.017,8.017v68.409c0,4.427,3.588,8.017,8.017,8.017h68.409
			c4.428,0,8.017-3.589,8.017-8.017V401.37C452.142,396.942,448.554,393.353,444.125,393.353z M436.109,461.762h-52.376v-52.376
			h52.376V461.762z"/>
	</g>
</g>
<g>
	<g>
		<path d="M341.511,282.188h-7.727l3.624-2.416c3.683-2.455,4.68-7.433,2.223-11.117c-2.456-3.685-7.433-4.68-11.116-2.223
			l-21.207,14.138l-21.207-14.138c-3.682-2.456-8.661-1.461-11.117,2.223c-2.456,3.683-1.46,8.661,2.223,11.117l3.624,2.416h-7.729
			c-4.428,0-8.017,3.589-8.017,8.017v68.409c0,4.427,3.588,8.017,8.017,8.017h68.409c4.428,0,8.017-3.589,8.017-8.017v-68.409
			C349.528,285.777,345.94,282.188,341.511,282.188z M299.29,350.597h-18.171v-26.722h18.171V350.597z M299.29,307.841h-18.171
			v-9.62h18.171V307.841z M333.495,350.597h-18.171v-26.722h18.171V350.597z M333.495,307.841h-18.171v-9.62h18.171V307.841z"/>
	</g>
</g>
</svg>