<?xml version="1.0" encoding="iso-8859-1"?>
<!-- Uploaded to: SVG Repo, www.svgrepo.com, Generator: SVG Repo Mixer Tools -->
<!DOCTYPE svg PUBLIC "-//W3C//DTD SVG 1.1//EN" "http://www.w3.org/Graphics/SVG/1.1/DTD/svg11.dtd">
<svg fill="#000000" height="800px" width="800px" version="1.1" id="Capa_1" xmlns="http://www.w3.org/2000/svg" xmlns:xlink="http://www.w3.org/1999/xlink" 
	 viewBox="0 0 487.866 487.866" xml:space="preserve">
<path d="M383.453,204.63c-5.299,0-10.733,0.5-16.152,1.485c-48.986,8.906-88.839,56.036-88.839,105.06
	c0,21.293,7.591,40.645,21.376,54.489c13.638,13.697,32.496,21.241,53.101,21.241c5.298,0,10.732-0.5,16.151-1.485
	c48.986-8.907,88.839-56.037,88.839-105.06c0-21.293-7.591-40.645-21.375-54.489C422.915,212.174,404.057,204.63,383.453,204.63z
	 M367.3,375.582c-4.83,0.878-9.662,1.323-14.362,1.323c-37.36,0-64.477-27.644-64.477-65.73c0-44.422,36.169-87.138,80.628-95.222
	c4.831-0.878,9.663-1.323,14.363-1.323c37.36,0,64.476,27.644,64.476,65.73C447.928,324.781,411.759,367.497,367.3,375.582z
	 M367.215,235.964c-0.019,0.004-0.037,0.008-0.056,0.011c-15.884,2.926-30.304,11.908-40.901,24.123
	c-0.271,0.217-0.526,0.461-0.754,0.74c-0.177,0.217-0.319,0.45-0.454,0.685c-10.327,12.495-16.715,28.13-16.753,44.083
	c0,0.018-0.001,0.036-0.001,0.054c0,0.03-0.002,0.059-0.002,0.089c0,29.453,21.035,50.83,50.018,50.83
	c3.538,0,7.165-0.334,10.779-0.991c0.029-0.005,0.057-0.012,0.086-0.018c0.019-0.004,0.037-0.008,0.056-0.011
	c15.882-2.926,30.301-11.906,40.898-24.12c0.272-0.217,0.528-0.463,0.758-0.744c0.178-0.218,0.321-0.452,0.456-0.688
	c10.326-12.495,16.712-28.128,16.75-44.08c0-0.018,0.001-0.036,0.001-0.054c0-0.03,0.002-0.059,0.002-0.089
	c0-29.452-21.035-50.829-50.016-50.829c-3.538,0-7.166,0.334-10.78,0.991C367.272,235.951,367.243,235.958,367.215,235.964z
	 M417.73,291.841c-1.186,10.236-5.301,20.119-11.474,28.606l-17.808-14.57c1.685-2.881,2.867-6.043,3.422-9.335L417.73,291.841z
	 M382.236,292.304c0,8.06-6.84,16.112-14.936,17.585c-0.857,0.155-1.71,0.234-2.534,0.234c-6.249,0-10.613-4.479-10.613-10.895
	c0-8.06,6.84-16.111,14.936-17.584c0.857-0.155,1.71-0.234,2.534-0.234C377.872,281.411,382.236,285.89,382.236,292.304z
	 M318.659,299.692c1.187-10.236,5.301-20.118,11.474-28.606l17.807,14.57c-1.685,2.881-2.867,6.042-3.422,9.334L318.659,299.692z
	 M363.195,247.208v25.701c-3.233,1.146-6.218,2.894-8.817,5.093l-17.776-14.544C343.991,255.96,353.151,250.2,363.195,247.208z
	 M318.472,309.889l26.455-4.81c0.663,2.473,1.743,4.728,3.165,6.704l-19.109,22.585
	C323.083,328.046,319.307,319.616,318.472,309.889z M336.723,340.702l19.074-22.543c2.248,1.048,4.735,1.703,7.398,1.889v26.274
	c-1.644,0.166-3.278,0.257-4.885,0.257C350.181,346.58,342.838,344.463,336.723,340.702z M373.195,344.326v-25.701
	c3.233-1.146,6.218-2.894,8.817-5.093l17.776,14.544C392.399,335.575,383.239,341.335,373.195,344.326z M417.917,281.644
	l-26.455,4.81c-0.663-2.473-1.743-4.727-3.165-6.704l19.11-22.585C413.307,263.488,417.082,271.918,417.917,281.644z
	 M399.667,250.832l-19.074,22.543c-2.248-1.048-4.735-1.703-7.398-1.889v-26.274c1.645-0.166,3.278-0.257,4.886-0.257
	C386.209,244.955,393.552,247.072,399.667,250.832z M433.415,282.977c0-2.762,2.239-5,5-5s5,2.238,5,5
	c0,41.021-33.342,80.455-74.325,87.907c-4.626,0.842-9.19,1.257-13.65,1.257c-15.262,0-29.311-4.867-40.505-14.21
	c-14.161-11.817-21.959-29.368-21.959-49.418c0-41.021,33.342-80.455,74.325-87.907c2.715-0.496,5.32,1.309,5.814,4.024
	c0.494,2.717-1.308,5.32-4.025,5.813c-36.456,6.629-66.114,41.65-66.114,78.069c0,17.032,6.522,31.856,18.366,41.74
	c12.149,10.14,28.472,13.972,45.959,10.793C403.756,354.418,433.415,319.396,433.415,282.977z M487.859,92.957
	c-0.007-0.301-0.041-0.598-0.101-0.888c-0.003-0.017-0.002-0.034-0.006-0.051c-0.001-0.006-0.005-0.012-0.006-0.018
	c-0.065-0.295-0.162-0.58-0.279-0.857c-0.019-0.046-0.036-0.093-0.057-0.138c-0.115-0.253-0.254-0.494-0.41-0.724
	c-0.035-0.052-0.07-0.102-0.107-0.152c-0.161-0.22-0.338-0.429-0.535-0.622c-0.036-0.035-0.075-0.067-0.112-0.102
	c-0.08-0.074-0.157-0.15-0.243-0.219c-0.129-0.104-0.265-0.199-0.403-0.289c-0.014-0.009-0.027-0.021-0.042-0.03
	c-0.241-0.155-0.497-0.281-0.758-0.391c-0.049-0.021-0.096-0.042-0.145-0.061c-0.257-0.099-0.52-0.175-0.789-0.229
	c-0.058-0.012-0.115-0.021-0.174-0.031c-0.277-0.047-0.558-0.074-0.841-0.073c-0.042,0-0.083,0.004-0.125,0.006
	c-0.308,0.009-0.617,0.039-0.924,0.106l-15.66,3.401V60.504c0-1.65-0.814-3.195-2.177-4.127s-3.097-1.13-4.635-0.533l-25.77,10.021
	V38.782c0-1.785-0.952-3.435-2.497-4.328c-1.545-0.895-3.449-0.896-4.996-0.006L243.933,139.202L61.795,34.448
	c-1.547-0.891-3.452-0.889-4.996,0.006c-1.545,0.894-2.497,2.543-2.497,4.328v27.082l-25.77-10.021
	c-1.539-0.598-3.273-0.399-4.635,0.533c-1.362,0.932-2.177,2.477-2.177,4.127v31.091l-15.66-3.401
	c-1.479-0.323-3.021,0.043-4.199,0.993C0.685,90.136,0,91.567,0,93.08v304.115c0,2.353,1.64,4.387,3.939,4.886l146.656,31.85
	c0.01,0.002,0.019,0.004,0.029,0.006l92.249,20.034c0.009,0.002,0.018,0.002,0.026,0.004c0.031,0.006,0.062,0.009,0.093,0.015
	c0.311,0.06,0.626,0.095,0.942,0.095s0.631-0.035,0.942-0.095c0.031-0.006,0.062-0.009,0.093-0.015
	c0.009-0.002,0.018-0.002,0.026-0.004l238.933-51.89c2.299-0.499,3.939-2.533,3.939-4.886V93.08c0-0.009-0.002-0.019-0.002-0.028
	C487.864,93.02,487.86,92.989,487.859,92.957z M456.145,93.767l-151.167,32.829l151.167-58.784V93.767z M423.563,69.753
	l-119.866,46.611l119.866-68.939V69.753z M64.303,47.426l119.866,68.939L64.303,69.753V47.426z M31.721,67.812l151.167,58.784
	l-30.245-6.568c-0.011-0.002-0.021-0.005-0.032-0.007L31.721,93.767V67.812z M10,99.282l136.618,29.67v293.883L10,393.165V99.282z
	 M477.866,393.165l-228.933,49.718v-10.854c0-2.762-2.239-5-5-5s-5,2.238-5,5v10.854l-82.315-17.876V131.123L238.933,149v253.009
	c0,2.762,2.239,5,5,5s5-2.238,5-5V149l228.933-49.718V393.165z M276.987,181.135l170.667-37.73c2.696-0.599,5.365,1.106,5.961,3.803
	c0.596,2.696-1.106,5.365-3.803,5.961l-170.667,37.73c-0.363,0.081-0.727,0.119-1.084,0.119c-2.294,0-4.361-1.589-4.877-3.922
	C272.588,184.399,274.291,181.73,276.987,181.135z"/>
</svg>